HIERARCHY
ROOT Hips
{
    OFFSET 0.000000 0.000000 0.000000
    CHANNELS 6 Xposition Yposition Zposition Zrotation Xrotation Yrotation
    JOINT Spine
    {
        OFFSET -0.000000 7.305679 0.000000
        CHANNELS 3 Zrotation Xrotation Yrotation
        JOINT Spine1
        {
            OFFSET -0.000000 20.356625 0.000000
            CHANNELS 3 Zrotation Xrotation Yrotation
            JOINT Neck
            {
                OFFSET -0.000000 22.138498 0.000000
                CHANNELS 3 Zrotation Xrotation Yrotation
                JOINT Head
                {
                    OFFSET -0.000000 13.809516 1.781873
                    CHANNELS 3 Zrotation Xrotation Yrotation
                    End Site
                    {
                        OFFSET -0.000000 17.818729 0.000000
                    }
                }
            }
            JOINT LeftShoulder
            {
                OFFSET 3.599131 17.989975 0.023592
                CHANNELS 3 Zrotation Xrotation Yrotation
                JOINT LeftArm
                {
                    OFFSET 12.560995 0.000000 0.000000
                    CHANNELS 3 Zrotation Xrotation Yrotation
                    JOINT LeftForeArm
                    {
                        OFFSET 22.903347 0.000000 0.000000
                        CHANNELS 3 Zrotation Xrotation Yrotation
                        JOINT LeftHand
                        {
                            OFFSET 21.865294 0.000000 0.000000
                            CHANNELS 3 Zrotation Xrotation Yrotation
                            JOINT LeftHandThumb1
                            {
                                OFFSET 1.853706 -2.106484 2.949078
                                CHANNELS 3 Zrotation Xrotation Yrotation
                                JOINT LeftHandThumb2
                                {
                                    OFFSET 2.049154 0.000000 1.336405
                                    CHANNELS 3 Zrotation Xrotation Yrotation
                                    JOINT LeftHandThumb3
                                    {
                                        OFFSET 2.672809 0.000000 0.000000
                                        CHANNELS 3 Zrotation Xrotation Yrotation
                                        End Site
                                        {
                                            OFFSET 2.381303 0.000000 0.000000
                                        }
                                    }
                                }
                            }
                            JOINT LeftHandIndex1
                            {
                                OFFSET 7.583345 0.000000 2.949078
                                CHANNELS 3 Zrotation Xrotation Yrotation
                                JOINT LeftHandIndex2
                                {
                                    OFFSET 4.454682 0.000000 0.000000
                                    CHANNELS 3 Zrotation Xrotation Yrotation
                                    JOINT LeftHandIndex3
                                    {
                                        OFFSET 2.227341 0.000000 0.000000
                                        CHANNELS 3 Zrotation Xrotation Yrotation
                                        End Site
                                        {
                                            OFFSET 1.984419 0.000000 0.000000
                                        }
                                    }
                                }
                            }
                            JOINT LeftHandMiddle1
                            {
                                OFFSET 7.583345 0.000000 0.977409
                                CHANNELS 3 Zrotation Xrotation Yrotation
                                JOINT LeftHandMiddle2
                                {
                                    OFFSET 4.900151 0.000000 0.000000
                                    CHANNELS 3 Zrotation Xrotation Yrotation
                                    JOINT LeftHandMiddle3
                                    {
                                        OFFSET 2.672809 0.000000 0.000000
                                        CHANNELS 3 Zrotation Xrotation Yrotation
                                        End Site
                                        {
                                            OFFSET 2.381303 0.000000 0.000000
                                        }
                                    }
                                }
                            }
                            JOINT LeftHandRing1
                            {
                                OFFSET 7.162047 0.000000 -0.977409
                                CHANNELS 3 Zrotation Xrotation Yrotation
                                JOINT LeftHandRing2
                                {
                                    OFFSET 4.454682 0.000000 0.000000
                                    CHANNELS 3 Zrotation Xrotation Yrotation
                                    JOINT LeftHandRing3
                                    {
                                        OFFSET 2.227341 0.000000 0.000000
                                        CHANNELS 3 Zrotation Xrotation Yrotation
                                        End Site
                                        {
                                            OFFSET 1.984419 0.000000 0.000000
                                        }
                                    }
                                }
                            }
                            JOINT LeftHandPinky1
                            {
                                OFFSET 6.740750 0.000000 -2.949078
                                CHANNELS 3 Zrotation Xrotation Yrotation
                                JOINT LeftHandPinky2
                                {
                                    OFFSET 3.563746 0.000000 0.000000
                                    CHANNELS 3 Zrotation Xrotation Yrotation
                                    JOINT LeftHandPinky3
                                    {
                                        OFFSET 1.781873 0.000000 0.000000
                                        CHANNELS 3 Zrotation Xrotation Yrotation
                                        End Site
                                        {
                                            OFFSET 1.587536 0.000000 0.000000
                                        }
                                    }
                                }
                            }
                        }
                    }
                }
            }
            JOINT RightShoulder
            {
                OFFSET -3.506995 17.989975 0.023592
                CHANNELS 3 Zrotation Xrotation Yrotation
                JOINT RightArm
                {
                    OFFSET -12.560995 0.000000 0.000000
                    CHANNELS 3 Zrotation Xrotation Yrotation
                    JOINT RightForeArm
                    {
                        OFFSET -22.903347 0.000000 0.000000
                        CHANNELS 3 Zrotation Xrotation Yrotation
                        JOINT RightHand
                        {
                            OFFSET -21.865294 0.000000 0.000000
                            CHANNELS 3 Zrotation Xrotation Yrotation
                            JOINT RightHandThumb1
                            {
                                OFFSET -1.853706 -2.106484 2.949078
                                CHANNELS 3 Zrotation Xrotation Yrotation
                                JOINT RightHandThumb2
                                {
                                    OFFSET -2.049154 0.000000 1.336405
                                    CHANNELS 3 Zrotation Xrotation Yrotation
                                    JOINT RightHandThumb3
                                    {
                                        OFFSET -2.672809 0.000000 0.000000
                                        CHANNELS 3 Zrotation Xrotation Yrotation
                                        End Site
                                        {
                                            OFFSET -2.381303 0.000000 0.000000
                                        }
                                    }
                                }
                            }
                            JOINT RightHandIndex1
                            {
                                OFFSET -7.583345 0.000000 2.949078
                                CHANNELS 3 Zrotation Xrotation Yrotation
                                JOINT RightHandIndex2
                                {
                                    OFFSET -4.454682 0.000000 0.000000
                                    CHANNELS 3 Zrotation Xrotation Yrotation
                                    JOINT RightHandIndex3
                                    {
                                        OFFSET -2.227341 0.000000 0.000000
                                        CHANNELS 3 Zrotation Xrotation Yrotation
                                        End Site
                                        {
                                            OFFSET -1.984419 0.000000 0.000000
                                        }
                                    }
                                }
                            }
                            JOINT RightHandMiddle1
                            {
                                OFFSET -7.583345 0.000000 0.977409
                                CHANNELS 3 Zrotation Xrotation Yrotation
                                JOINT RightHandMiddle2
                                {
                                    OFFSET -4.900151 0.000000 0.000000
                                    CHANNELS 3 Zrotation Xrotation Yrotation
                                    JOINT RightHandMiddle3
                                    {
                                        OFFSET -2.672809 0.000000 0.000000
                                        CHANNELS 3 Zrotation Xrotation Yrotation
                                        End Site
                                        {
                                            OFFSET -2.381303 0.000000 0.000000
                                        }
                                    }
                                }
                            }
                            JOINT RightHandRing1
                            {
                                OFFSET -7.162047 0.000000 -0.977409
                                CHANNELS 3 Zrotation Xrotation Yrotation
                                JOINT RightHandRing2
                                {
                                    OFFSET -4.454682 0.000000 0.000000
                                    CHANNELS 3 Zrotation Xrotation Yrotation
                                    JOINT RightHandRing3
                                    {
                                        OFFSET -2.227341 0.000000 0.000000
                                        CHANNELS 3 Zrotation Xrotation Yrotation
                                        End Site
                                        {
                                            OFFSET -1.984419 0.000000 0.000000
                                        }
                                    }
                                }
                            }
                            JOINT RightHandPinky1
                            {
                                OFFSET -6.740750 0.000000 -2.949078
                                CHANNELS 3 Zrotation Xrotation Yrotation
                                JOINT RightHandPinky2
                                {
                                    OFFSET -3.563746 0.000000 0.000000
                                    CHANNELS 3 Zrotation Xrotation Yrotation
                                    JOINT RightHandPinky3
                                    {
                                        OFFSET -1.781873 0.000000 0.000000
                                        CHANNELS 3 Zrotation Xrotation Yrotation
                                        End Site
                                        {
                                            OFFSET -1.587536 0.000000 0.000000
                                        }
                                    }
                                }
                            }
                        }
                    }
                }
            }
        }
    }
    JOINT LeftUpLeg
    {
        OFFSET 8.909365 0.000000 0.000000
        CHANNELS 3 Zrotation Xrotation Yrotation
        JOINT LeftLeg
        {
            OFFSET -0.000000 -38.765560 0.000000
            CHANNELS 3 Zrotation Xrotation Yrotation
            JOINT LeftFoot
            {
                OFFSET -0.000000 -35.244961 0.000000
                CHANNELS 3 Zrotation Xrotation Yrotation
                JOINT LeftToeBase
                {
                    OFFSET -0.000000 -5.791087 13.364048
                    CHANNELS 3 Zrotation Xrotation Yrotation
                    End Site
                    {
                        OFFSET -0.000000 0.000000 3.563746
                    }
                }
            }
        }
    }
    JOINT RightUpLeg
    {
        OFFSET -8.909365 0.000000 0.000000
        CHANNELS 3 Zrotation Xrotation Yrotation
        JOINT RightLeg
        {
            OFFSET -0.000000 -38.765560 0.000000
            CHANNELS 3 Zrotation Xrotation Yrotation
            JOINT RightFoot
            {
                OFFSET -0.000000 -35.244961 0.000000
                CHANNELS 3 Zrotation Xrotation Yrotation
                JOINT RightToeBase
                {
                    OFFSET -0.000000 -5.791087 13.364048
                    CHANNELS 3 Zrotation Xrotation Yrotation
                    End Site
                    {
                        OFFSET -0.000000 0.000000 3.563746
                    }
                }
            }
        }
    }
}
MOTION
Frames:    4
Frame Time:    0.008333
-2.131749    80.730515    114.459763    -1.939788    -6.348783    -3.628637    0.647457    1.374083    -0.870294    -0.406474    6.486493    -0.264705    1.903489    1.718168    0.002422    -0.592390    1.896765    0.371218    1.769712    3.424209    -11.282454    -85.671249    33.671886    -3.619233    13.470676    -5.282301    -5.531876    -2.244908    -28.183075    6.113964    -1.123806    1.891541    0.898633    -0.000000    0.000000    1.422875    -0.000000    0.000000    2.845751    -22.826366    4.814751    -11.277703    -46.604069    0.000000    0.000000    -23.302031    0.000000    0.000000    -27.819969    1.217593    -3.757856    -55.708008    0.000000    0.000000    -27.854012    0.000000    0.000000    -32.305862    -2.988231    3.429550    -64.811989    0.000000    0.000000    -32.405987    0.000000    0.000000    -36.370838    -7.862072    10.521860    -74.191803    0.000000    0.000000    -37.095901    0.000000    0.000000    -4.546180    -3.236171    1.887522    94.658440    55.162205    -7.888965    -11.966453    -28.944136    5.695066    14.613333    -43.503902    -0.913243    0.013057    -0.591688    0.937882    0.000000    0.000000    0.000000    0.000000    0.000000    0.000000    9.526130    0.000000    -0.000000    19.052259    0.000000    -0.000000    9.526130    0.000000    -0.000000    15.027926    -0.816897    -2.167834    30.099031    0.000000    -0.000000    15.049514    0.000000    -0.000000    20.496990    -1.837293    -4.248153    41.145802    0.000000    -0.000000    20.572901    0.000000    -0.000000    26.094053    -3.090309    -6.281416    52.527321    0.000000    -0.000000    26.263662    0.000000    -0.000000    -0.694445    -2.736146    0.821794    -0.368202    25.104784    -4.430838    3.675180    -15.726160    9.836042    0.042215    -0.210862    -0.130640    0.498287    -0.935676    -1.464050    -0.957076    20.117283    0.468184    1.886464    -12.428092    5.642479    -0.124789    0.061614    0.202280    
-2.070755    80.684647    114.526382    -1.902992    -6.469563    -3.822820    0.593412    1.350017    -0.875861    -0.441582    6.535195    -0.264607    1.930801    1.744508    0.150752    -0.593032    1.966333    0.529549    1.765944    3.481120    -11.248634    -85.785446    33.591457    -3.555271    13.477085    -5.324994    -5.538856    -2.164724    -28.256907    6.119116    -1.115125    1.915130    0.938779    -0.000000    0.000000    1.450657    -0.000000    0.000000    2.901314    -22.574501    4.778828    -11.331404    -46.097752    0.000000    0.000000    -23.048876    0.000000    0.000000    -27.643972    1.248321    -3.855341    -55.358562    0.000000    0.000000    -27.679283    0.000000    0.000000    -32.216656    -2.897618    3.288015    -64.619370    0.000000    0.000000    -32.309689    0.000000    0.000000    -36.381695    -7.717988    10.330363    -74.160812    0.000000    0.000000    -37.080406    0.000000    0.000000    -4.532776    -3.242875    1.881228    94.586441    55.183941    -7.783665    -11.941613    -29.037689    5.680810    14.564692    -43.568520    -0.975028    0.021742    -0.587345    0.936819    0.000000    0.000000    0.000000    0.000000    0.000000    0.000000    9.514422    0.000000    -0.000000    19.028843    0.000000    -0.000000    9.514422    0.000000    -0.000000    15.020982    -0.816198    -2.166226    30.085083    0.000000    -0.000000    15.042542    0.000000    -0.000000    20.494852    -1.835917    -4.244925    41.141327    0.000000    -0.000000    20.570662    0.000000    -0.000000    26.096935    -3.088253    -6.276483    52.532604    0.000000    -0.000000    26.266298    0.000000    -0.000000    -0.771876    -2.629814    0.954644    -0.415441    25.265781    -4.231661    3.722752    -15.839252    9.742891    0.044737    -0.154878    -0.130008    0.376117    -1.202344    -1.257132    -0.910937    20.958725    0.425217    1.917102    -12.862594    5.701670    -0.124422    0.057411    0.201287    
-2.008291    80.638405    114.593445    -1.856396    -6.590671    -4.008086    0.530399    1.323106    -0.888260    -0.477450    6.586712    -0.266809    1.955164    1.771282    0.297330    -0.591834    2.029706    0.685208    1.761237    3.537489    -11.217338    -85.893074    33.523514    -3.494005    13.480863    -5.377309    -5.542210    -2.083705    -28.330147    6.121893    -1.101245    1.938792    0.985519    -0.000000    0.000000    1.485696    -0.000000    0.000000    2.971392    -22.335785    4.743674    -11.380479    -45.617428    0.000000    0.000000    -22.808718    0.000000    0.000000    -27.469555    1.274687    -3.942776    -55.012005    0.000000    0.000000    -27.506004    0.000000    0.000000    -32.116447    -2.815328    3.162569    -64.406593    0.000000    0.000000    -32.203297    0.000000    0.000000    -36.367512    -7.585018    10.162309    -74.085854    0.000000    0.000000    -37.042923    0.000000    0.000000    -4.520976    -3.247853    1.873640    94.515137    55.198524    -7.673444    -11.916139    -29.127645    5.667968    14.509147    -43.640423    -1.031914    0.026689    -0.581988    0.931697    0.000000    0.000000    0.000000    0.000000    0.000000    0.000000    9.502308    0.000000    -0.000000    19.004616    0.000000    -0.000000    9.502308    0.000000    -0.000000    15.013536    -0.816202    -2.166544    30.070219    0.000000    -0.000000    15.035110    0.000000    -0.000000    20.492081    -1.836126    -4.245478    41.135826    0.000000    -0.000000    20.567913    0.000000    -0.000000    26.098959    -3.088863    -6.277153    52.536751    0.000000    -0.000000    26.268375    0.000000    -0.000000    -0.861235    -2.519472    1.077830    -0.464107    25.415070    -4.015504    3.765192    -15.948194    9.634713    0.047127    -0.098995    -0.129064    0.245009    -1.466118    -1.040260    -0.858147    21.793768    0.360515    1.949634    -13.294170    5.764139    -0.123872    0.053008    0.199987    
-1.943119    80.591270    114.661201    -1.791698    -6.712295    -4.176913    0.450938    1.291607    -0.912978    -0.514752    6.643297    -0.272964    1.974104    1.797908    0.440778    -0.587042    2.082489    0.836270    1.756443    3.590838    -11.190995    -85.991135    33.478172    -3.435863    13.480000    -5.445807    -5.538724    -2.000789    -28.401535    6.121390    -1.080269    1.962166    1.040744    -0.000000    0.000000    1.530336    -0.000000    0.000000    3.060673    -22.121761    4.712057    -11.424833    -45.186764    0.000000    0.000000    -22.593382    0.000000    0.000000    -27.301079    1.295930    -4.016379    -54.676987    0.000000    0.000000    -27.338490    0.000000    0.000000    -32.001770    -2.745073    3.060829    -64.167198    0.000000    0.000000    -32.083603    0.000000    0.000000    -36.316154    -7.469267    10.029690    -73.945007    0.000000    0.000000    -36.972511    0.000000    0.000000    -4.512246    -3.251499    1.863810    94.448990    55.201363    -7.558407    -11.890548    -29.214350    5.657647    14.442245    -43.722496    -1.081439    0.024713    -0.575440    0.920135    0.000000    0.000000    0.000000    0.000000    0.000000    0.000000    9.489306    0.000000    -0.000000    18.978617    0.000000    -0.000000    9.489306    0.000000    -0.000000    15.005219    -0.817079    -2.169273    30.053682    0.000000    -0.000000    15.026838    0.000000    -0.000000    20.488358    -1.838306    -4.250758    41.128750    0.000000    -0.000000    20.564371    0.000000    -0.000000    26.099876    -3.092796    -6.284822    52.539421    0.000000    -0.000000    26.269711    0.000000    -0.000000    -0.971990    -2.402998    1.183262    -0.514898    25.545687    -3.770438    3.798963    -16.050554    9.500684    0.049178    -0.043836    -0.127372    0.095769    -1.726386    -0.806551    -0.793120    22.622839    0.259797    1.985177    -13.724249    5.829969    -0.123165    0.048145    0.198394    
